# xmcd CD database file
#
# Track frame offsets:
#	150
#	18525
#	33761
#	52029
#	69311
#	88728
#	105144
#	129913
#	147531
#	178331
#	192619
#	209966
#	231382
#	245701
#	266531
#	294424
#
# Disc length: 4340 seconds
#
# Revision: 0
# Processed by: cddbd v1.5.2PL0 Copyright (c) Steve Scherf et al.
# Submitted via: CDex 1.70beta2
#
DISCID=f810f210
DTITLE=NIna Simone - The solid gold collection
DYEAR=2005
DGENRE=Blues
TTITLE0=I Loves you Porgy
TTITLE1=Love me or leave me
TTITLE2=Mood indigo
TTITLE3=You'll never walk alone
TTITLE4=Little girl blue
TTITLE5=My baby just cares for me
TTITLE6=Good bait
TTITLE7=Plain old ring
TTITLE8=Central Park blues
TTITLE9=African mailman
TTITLE10=See line woman
TTITLE11=When i was a young girl
TTITLE12=Please read me
TTITLE13=Just in time
TTITLE14=Aint't got no - i got life
TTITLE15=House of the  rising sun
EXTD=YEAR: 2005
EXTT0=
EXTT1=
EXTT2=
EXTT3=
EXTT4=
EXTT5=
EXTT6=
EXTT7=
EXTT8=
EXTT9=
EXTT10=
EXTT11=
EXTT12=
EXTT13=
EXTT14=
EXTT15=
PLAYORDER=
